<?xml version="1.0" encoding="utf-8"?>
<!-- Generator: Adobe Illustrator 24.0.1, SVG Export Plug-In . SVG Version: 6.00 Build 0)  -->
<svg version="1.1" id="Слой_1" xmlns="http://www.w3.org/2000/svg" xmlns:xlink="http://www.w3.org/1999/xlink" x="0px" y="0px"
	 viewBox="0 0 24 24" style="enable-background:new 0 0 24 24;" xml:space="preserve">
<style type="text/css">
	.st0{fill:#2B2B2B;}
</style>
<path class="st0" d="M6,7.4C6.4,7.1,6.9,7,7.3,7c0.9,0,1.9,0.6,2.1,1.6C9.1,8.3,8.6,8.1,8.2,8.1c-0.5,0-0.9,0.1-1.3,0.4
	C6.1,9.1,5.7,10.1,6,11C4.8,10.1,4.8,8.3,6,7.4z M9.8,20.2c1,0.3,4.1,1.2,7.6,3.8l6.6-4.7c-1.7-2.4-1.2-4.1-2.9-6.5
	c-1.2-1.6-1.8-1.7-3-1.4l0.6,0.8c0.4,0.5-0.4,1.1-0.8,0.5L17.3,12c-0.4-0.6-1.3-0.2-2.1-0.1l0.7,1c0.4,0.5-0.4,1.1-0.8,0.5l-0.6-0.9
	c-0.4-0.6-1.3-0.2-2.1,0l0.8,1.1c0.4,0.5-0.4,1-0.8,0.5L9.4,9.9c-1-1.4-3.1,0.1-2.1,1.5l4.6,6.5c-0.5-0.2-1.4-0.3-1.9-0.3
	C8.2,17.5,7.6,19.4,9.8,20.2z M6.5,18H2V4h10v6.7l2-0.5V2c0-1.1-0.9-2-2-2H2C0.9,0,0,0.9,0,2v18.7C0,22.9,3.5,24,7,24
	c1.8,0,3.6-0.3,4.9-0.9C9.8,22.2,5.6,21.5,6.5,18z"/>
</svg>
