<?xml version="1.0" encoding="utf-8"?>
<!-- Generator: Adobe Illustrator 24.0.1, SVG Export Plug-In . SVG Version: 6.00 Build 0)  -->
<svg version="1.1" id="Слой_1" xmlns="http://www.w3.org/2000/svg" xmlns:xlink="http://www.w3.org/1999/xlink" x="0px" y="0px"
	 viewBox="0 0 24 24" style="enable-background:new 0 0 24 24;" xml:space="preserve">
<style type="text/css">
	.st0{fill-rule:evenodd;clip-rule:evenodd;fill:#2B2B2B;}
</style>
<path class="st0" d="M10.5,18c5.2,0,9.5-4.3,9.5-9.5c0-3-1.3-5.2-3.2-7.1L18.2,0C20.5,2.1,22,5.1,22,8.5c0,5.8-4.3,10.7-10,11.4V20
	c0,1.9,1.5,3,3,3h1v1H5v-1h1c1.5,0,3-1.1,3-3v-0.1c-2.8-0.4-5.2-1.7-7-3.6l1.4-1.4C5.4,16.9,7.6,18,10.5,18 M2,8.5
	C2,3.9,5.8,0,10.5,0C15.2,0,19,3.9,19,8.5c0,4.7-3.8,8.5-8.5,8.5C5.8,17,2,13.2,2,8.5 M13.8,6.8c0,0.1,0.4,0.5,0.5,0.6
	c0.2,0.1,0.2,0.4,0.4,0.6C15.1,8.2,15,9,15.5,8.5c0.4-0.3,1.1-1,0.9-1.5c-0.1-0.3-0.6-0.1-0.7,0c-0.2-0.1-0.7-0.7-0.5-0.8
	c0.1,0,0.3,0.3,0.4,0.3l0.4,0c0.1,0.2,0.9-0.3,1.1-0.2l0.1,0.1c-0.6-2-2.1-3.7-4-4.5c0,0.1-0.3,0.1-0.4,0.3c0,0.1-0.2,0.3-0.2,0.4
	c-0.1,0.1-0.3,0.1-0.3-0.1c0.1-0.1,0.3-0.2-0.1-0.2c-0.4,0-0.5-0.3-0.9,0c-0.1,0.1-0.2,0.2-0.3,0.4l-0.5,0.3
	c-0.1,0.2,0.1,0.4,0.3,0.3c0.1,0,0.7,0.6,0.6,0.1c-0.1-0.3,0.2-0.5,0.2-0.8c0-0.2,0.2-0.1,0.2,0c-0.1,0.1-0.2,0.5,0,0.5
	c0.1,0,0.3-0.1,0.4-0.1c-0.1,0-0.3,0.3-0.3,0.3c-0.1,0-0.2,0-0.1,0.2c0.1,0.2-0.4,0.2-0.4,0.2c0,0-0.4-0.1-0.3,0
	c-0.1-0.1,0-0.3-0.1-0.4C11,3.6,11,3.9,10.8,3.9c-0.2,0-0.4,0.2-0.5,0.3c-0.1,0.1-0.5,0.3-0.6,0.3C10,4.5,10,4.7,10,4.9
	C9.9,5.2,9.1,4.9,9.1,5C9.2,5.2,9,5.5,9,5.6c0,0.1,0.3,0.2,0.3,0.2c0,0,0.5-0.2,0.6-0.2L10,5.4c0.1-0.1,0.2-0.1,0.3-0.2L10.4,5
	C10.5,5,11,4.9,11,5c0.1,0.1,0.4,0.3,0.5,0.4c0,0,0.2,0.1,0.2,0.2l0,0.2c0.1,0.2,0.1-0.3,0.1-0.2c0-0.2,0.1,0.1,0.1,0L11.3,5
	c-0.2-0.3,0.5,0.2,0.6,0.2c0.1,0.1,0.2,0.5,0.5,0.4l0.1-0.2l0.4-0.1C12.5,5.5,13,5.8,13,5.8l0,0l0,0c0.1,0.1,0.2-0.1,0.3,0
	c0,0,0.6,0,0.5-0.1c0.1,0.1,0.1,0.6,0,0.7c-0.2,0.1-1,0.1-1.2-0.1c-0.3-0.2-0.3,0.2-0.4,0.3c-0.3,0.1-0.7-0.4-1-0.4l0,0l0,0
	c0.1,0,0-0.4,0-0.4c-0.1-0.1-0.9,0-1.1,0C9.6,6,9.2,6,9,6.2C8.8,6.4,8.8,6.6,8.5,6.8C8.4,6.8,8.3,6.8,8.2,6.9C8,7.1,7.7,7.4,7.6,7.6
	c0,0.1,0.1,0.4,0,0.5c-0.3,0.8,0.1,2,1.1,2.1c0.2,0,0.5,0.2,0.7,0.1c0.2-0.1,0.4-0.2,0.6-0.2c0.3,0,0.2,0.4,0.6,0.3
	c0.2-0.1,0.3,0.1,0.3,0.3c-0.1,0.3-0.2,0.5,0.1,0.7c0.2,0.1,0.3,0.4,0.4,0.6c0,0.1,0.2,0.4,0,0.5c-0.1,0.1-0.2,0.4-0.2,0.5
	c0,0.1,0.3,0.4,0.4,0.5c0.1,0.2,0,0.3,0.1,0.5c0.1,0.2,0.2,0.3,0.3,0.5c0.1,0.3,0.7,0,0.9,0c0.5,0,0.8-0.7,1.2-1
	c0.2-0.1,0.2-0.5,0.4-0.7c0.2-0.2,0.5-0.3,0.5-0.6c0-0.3-0.2-0.8-0.1-1.1c0.1-0.3,1.7-2.5,1.2-2.6L15.3,9c-0.1,0-0.6-0.5-0.7-0.6
	c-0.2-0.2-0.3-0.7-0.5-0.9c-0.1-0.2-0.5-0.5-0.5-0.7c0,0,0.2,0.3,0.2,0.2L13.8,6.8L13.8,6.8L13.8,6.8 M3.4,8.5c0-0.4,0-0.8,0.1-1.1
	l0.2,0.1c0.1,0.1,0.1,0.5,0.1,0.6C4,8.5,4.2,8.7,4.4,9c0.1,0.2,0.3,0.7,0.2,0.8c0.1-0.1,0.8,0.6,0.9,0.7c0.3,0.3,0.5,0.8,0,1.1
	c-0.2,0.1,0.2,0.8,0,1l-0.3,0.1c-0.2,0.1-0.2,0.3-0.1,0.4C4.1,12,3.4,10.3,3.4,8.5 M13.6,4.4c0.1,0-0.1,0.1-0.1,0.1
	c0,0.2,0.2,0.3,0.4,0.4c0.3,0.1,0,0.3-0.2,0.3c-0.1,0-0.6-0.2-0.6,0c0,0.1-0.5,0-0.4-0.1c0.1-0.1,0-0.3,0.1-0.4
	c0.1-0.2,0.3-0.1,0.3,0C13.2,5,13.4,4.4,13.6,4.4 M9.7,4l0.1-0.1c0-0.1,0.1-0.1,0-0.2l0-0.1l-0.1,0c0,0,0.1-0.5,0.3-0.3L10,3.4
	c0.1,0.1,0.1,0.3,0.2,0.5C10.2,4,10.4,4,10.2,4c0.1,0-0.4,0.2-0.5,0.1C9.7,4.1,9.9,4.1,9.9,4.1C9.9,4,9.7,4,9.7,4 M9.4,3.8L9.4,3.8
	L9.4,3.8l0.2-0.1c0,0,0.1,0.1,0.1,0.1L9.7,3.8C9.6,4,9.5,4,9.4,4C9.4,4,9.3,4,9.4,3.9L9.4,3.8L9.4,3.8 M7.2,2.3
	c0.1,0.1,0.2,0.1,0,0.2C7,2.6,6.9,3.1,6.7,3.1C6.4,3.3,6.4,2.8,6,3.4C5.9,3.5,5.7,3.5,5.5,3.6C6,3.1,6.5,2.7,7.2,2.3 M10.8,1.5
	l-0.3,0.2c-0.3,0.2-0.9,0.6-1.3,0.5C8.9,2.1,8.1,2.7,7.9,2.7c0,0,0-0.5,0.3-0.5C8.1,2.2,8.9,1.8,9,1.6c0.5-0.1,1-0.2,1.5-0.2
	L10.8,1.5"/>
</svg>
