<?xml version="1.0" encoding="utf-8"?>
<!-- Generator: Adobe Illustrator 24.0.1, SVG Export Plug-In . SVG Version: 6.00 Build 0)  -->
<svg version="1.1" id="Слой_1" xmlns="http://www.w3.org/2000/svg" xmlns:xlink="http://www.w3.org/1999/xlink" x="0px" y="0px"
	 viewBox="0 0 24 24" style="enable-background:new 0 0 24 24;" xml:space="preserve">
<style type="text/css">
	.st0{fill:#2B2B2B;}
</style>
<path class="st0" d="M12,13v4c0,0.9-0.7,1.1-1.2,0.6c-0.3-0.3-0.5-0.6-1.1-0.6C8.9,17,8,17.7,8,19s0.9,2,1.7,2
	c0.7,0,0.9-0.4,1.1-0.6c0.5-0.5,1.2-0.3,1.2,0.6v3H0V13h4.6c0.9,0,1.4-0.6,1.4-1.1c0-0.5-0.3-0.8-0.6-1.1C5.1,10.6,5,10.5,5,10.2
	C5,9.7,5.5,9,6.5,9S8,9.7,8,10.2c0,0.3-0.1,0.5-0.3,0.7c-0.3,0.3-0.6,0.6-0.6,1.1c0,0.5,0.4,1.1,1.4,1.1C8.4,13,12,13,12,13z
	 M14.2,6.7C14.4,6.9,14.5,7,14.8,7C15.3,7,16,6.5,16,5.5S15.3,4,14.8,4c-0.3,0-0.5,0.1-0.7,0.3c-0.3,0.3-0.6,0.6-1.1,0.6
	c-0.5,0-1.1-0.4-1.1-1.4V0H0v12h4.6c0.5,0,0.4-0.1,0.1-0.5C4.4,11.3,4,10.9,4,10.2C4,9.1,5,8,6.5,8S9,9.1,9,10.2
	c0,0.8-0.4,1.1-0.7,1.4C8,11.9,7.9,12,8.4,12H12V7.4c0-0.9,0.6-1.4,1.1-1.4C13.6,6.1,13.9,6.3,14.2,6.7z M13,0v3.5
	c0,0.5,0.1,0.4,0.5,0.1C13.7,3.4,14.1,3,14.8,3c1,0,2.2,1,2.2,2.5S15.9,8,14.8,8c-0.8,0-1.1-0.4-1.4-0.7C13.1,7,13,6.9,13,7.5V12h3
	c0.9,0,1.1,0.7,0.6,1.2c-0.3,0.3-0.6,0.5-0.6,1.1c0,0.7,0.7,1.7,2,1.7s2-0.9,2-1.7c0-0.7-0.4-0.9-0.6-1.1c-0.5-0.5-0.3-1.2,0.6-1.2
	h4V0C24,0,13,0,13,0z"/>
</svg>
