<?xml version="1.0" encoding="utf-8"?>
<!-- Generator: Adobe Illustrator 24.0.1, SVG Export Plug-In . SVG Version: 6.00 Build 0)  -->
<svg version="1.1" id="Слой_1" xmlns="http://www.w3.org/2000/svg" xmlns:xlink="http://www.w3.org/1999/xlink" x="0px" y="0px"
	 viewBox="0 0 24 24" style="enable-background:new 0 0 24 24;" xml:space="preserve">
<style type="text/css">
	.st0{fill-rule:evenodd;clip-rule:evenodd;fill:#2B2B2B;}
</style>
<path class="st0" d="M17,3c0-1.1-0.9-2-2-2H8C6.9,1,6,1.9,6,3v7c0,1.1,0.9,2,2,2h7c1.1,0,2-0.9,2-2V3z M23,15c0-1.1-0.9-2-2-2h-7
	c-1.1,0-2,0.9-2,2v7c0,1.1,0.9,2,2,2h7c1.1,0,2-0.9,2-2V15z M18.4,19.2c0,0.5-0.2,0.8-0.6,0.8c-1.1,0.1-1.1-0.8-1.1-1.8
	c0-0.8,0.3-1.4,1.1-1.3c0.5,0.1,0.6,0.4,0.6,0.9h1.2l0,0c-0.1-1.3-0.9-1.8-1.9-1.9c-1.2,0-2.2,0.7-2.2,2.8c0,1.3,0.7,2.3,2.1,2.3
	c1.1,0,1.9-0.5,2-1.8l0,0C19.5,19.2,18.4,19.2,18.4,19.2z M13.8,9L13.8,9L12,4H11L9.1,9l0,0h1.2l0.3-1h1.6l0.3,1H13.8z M12,7H11
	l0.5-1.4L12,7z M11,15c0-1.1-0.9-2-2-2H2c-1.1,0-2,0.9-2,2v7c0,1.1,0.9,2,2,2h7c1.1,0,2-0.9,2-2V15z M5.6,21c1,0,1.8-0.4,1.8-1.4
	c0-0.6-0.2-1-0.6-1.2c0.3-0.2,0.6-0.6,0.5-1.1c0-1-0.8-1.3-1.8-1.3c-0.6,0-1.3,0-1.9,0v5H5.6z M4.8,18.9V20l0.8,0
	c0.4,0,0.6-0.2,0.6-0.6c0-0.3-0.2-0.5-0.5-0.5L4.8,18.9 M4.8,17v1l0.7,0c0.4,0,0.7-0.2,0.6-0.6C6.1,17.2,6,17,5.4,17H4.8"/>
</svg>
