<?xml version="1.0" encoding="utf-8"?>
<!-- Generator: Adobe Illustrator 24.0.1, SVG Export Plug-In . SVG Version: 6.00 Build 0)  -->
<svg version="1.1" id="Слой_1" xmlns="http://www.w3.org/2000/svg" xmlns:xlink="http://www.w3.org/1999/xlink" x="0px" y="0px"
	 viewBox="0 0 24 24" style="enable-background:new 0 0 24 24;" xml:space="preserve">
<style type="text/css">
	.st0{fill:#2B2B2B;}
</style>
<path class="st0" d="M23,10.8v2.3c-1.6,0-3,1.3-3,2.9c0,2.2,1.3,6-6,6v-2c4.9,0,4-1.6,4-4c0-2.1,1.2-3.5,2.3-4
	c-1.1-0.5-2.3-1.4-2.3-3.3C18,6.3,18.9,4,14,4V2c7.3,0,6,4.5,6,6.7C20,10.2,21.4,10.8,23,10.8z M4,8.7C4,6.5,2.7,2,10,2v2
	C5.1,4,6,6.3,6,8.7c0,1.9-1.2,2.8-2.3,3.3C4.8,12.5,6,13.9,6,16c0,2.4-1,4,4,4v2c-7.3,0-6-3.8-6-6c0-1.5-1.4-2.9-3-2.9v-2.3
	C2.6,10.8,4,10.2,4,8.7z M13,14v1.3c0,1.1-0.7,2.1-1.8,2.3L11,17.1c0.5-0.2,0.8-0.8,0.8-1.2H11V14H13z M13,8h-2v2h2V8z"/>
</svg>
