<svg xmlns="http://www.w3.org/2000/svg" viewBox="0 0 64 64" width="64px" height="64px"><linearGradient id="qeMeXTgIS7aJCx8tOMHCua" x1="31" x2="31" y1="8" y2="58" gradientUnits="userSpaceOnUse" spreadMethod="reflect"><stop offset="0" stop-color="#1a6dff"/><stop offset="1" stop-color="#c822ff"/></linearGradient><path fill="none" stroke="url(#qeMeXTgIS7aJCx8tOMHCua)" stroke-miterlimit="10" stroke-width="2" d="M29.606,56.547L6.865,40.024 c-0.831-0.604-1.179-1.675-0.862-2.652l8.686-26.734C15.007,9.662,15.918,9,16.945,9h28.109c1.028,0,1.939,0.662,2.256,1.639 l8.686,26.734c0.317,0.977-0.031,2.048-0.862,2.652l-22.74,16.523C31.563,57.151,30.437,57.151,29.606,56.547z"/><linearGradient id="qeMeXTgIS7aJCx8tOMHCub" x1="30.994" x2="30.994" y1="17" y2="45" gradientUnits="userSpaceOnUse" spreadMethod="reflect"><stop offset="0" stop-color="#6dc7ff"/><stop offset="1" stop-color="#e6abff"/></linearGradient><path fill="url(#qeMeXTgIS7aJCx8tOMHCub)" d="M24.852,17l12.324,0.016c0.455,0,0.823,0.377,0.823,0.841v3.267 c0,0.465-0.369,0.841-0.823,0.841l-7.338-0.016c-0.286,0-0.53,0.216-0.569,0.506l-0.331,3.131c-0.073,0.618,0.481,0.927,1.062,0.739 C30.546,26.149,31.258,26,32.115,26C35.588,26,41,27.986,41,34.694S35.565,45,30.931,45c-7.306,0-9.232-4.693-9.905-6.875 c-0.168-0.542,0.234-1.088,0.79-1.088h5.416c0.253,0,0.491,0.113,0.643,0.319c0.383,0.517,1.592,1.534,3.125,1.534 c2.094,0,3.625-1.716,3.625-3.515s-1.37-3.739-3.75-3.739c-1.654,0-2.683,1.092-3.104,1.78c-0.188,0.306-0.549,0.446-0.892,0.358 l-4.258-1.106c-0.415-0.107-0.68-0.522-0.61-0.954l2.028-14.011C24.106,17.297,24.45,17,24.852,17z"/></svg>