<?xml version="1.0" encoding="utf-8"?>
<!-- Generator: Adobe Illustrator 24.0.1, SVG Export Plug-In . SVG Version: 6.00 Build 0)  -->
<svg version="1.1" id="Слой_1" xmlns="http://www.w3.org/2000/svg" xmlns:xlink="http://www.w3.org/1999/xlink" x="0px" y="0px"
	 viewBox="0 0 24 24" style="enable-background:new 0 0 24 24;" xml:space="preserve">
<style type="text/css">
	.st0{fill:#2B2B2B;}
</style>
<path class="st0" d="M6,2l1.2,0.2C6.8,4.4,8,4.7,9.9,5.1C11.3,5.4,13,5.7,13,8.4V9h-1.2V8.4c0-1.6-0.5-1.8-2.2-2.1
	C7.1,5.8,5.6,4.8,6,2z M24,16c0,3.3-2.6,6-5.8,6c-1.5,0-2.9-0.6-3.9-1.6c-1.3-1.2-3.3-1.1-4.6,0c-1,0.9-2.4,1.5-3.9,1.5
	C2.6,22,0,19.3,0,16s2.6-6,5.8-6l12.6,0C21.5,10.1,24,12.8,24,16z M9,15H7v-2H5v2H3v2h2v2h2v-2h2V15z M13,16h-2v1h2V16z M17,14
	c0,0.6,0.4,1,1,1s1-0.4,1-1s-0.4-1-1-1S17,13.4,17,14z M17,16c0-0.6-0.4-1-1-1s-1,0.4-1,1s0.4,1,1,1C16.6,17,17,16.6,17,16z M19,18
	c0-0.6-0.4-1-1-1s-1,0.4-1,1s0.4,1,1,1S19,18.6,19,18z M21,16c0-0.6-0.4-1-1-1s-1,0.4-1,1s0.4,1,1,1S21,16.6,21,16z"/>
</svg>
