<?xml version="1.0" encoding="utf-8"?>
<!-- Generator: Adobe Illustrator 24.0.1, SVG Export Plug-In . SVG Version: 6.00 Build 0)  -->
<svg version="1.1" id="Capa_1" xmlns="http://www.w3.org/2000/svg" xmlns:xlink="http://www.w3.org/1999/xlink" x="0px" y="0px"
	 viewBox="0 0 196.1 196.1" style="enable-background:new 0 0 196.1 196.1;" xml:space="preserve">
<style type="text/css">
	.st0{fill:#2B2B2B;}
</style>
<g>
	<path class="st0" d="M170.9,76.6v42.9c0,6.2-5,11.2-11.2,11.2c-6.2,0-11.2-5-11.2-11.2V76.6c0-6.2,5-11.2,11.2-11.2
		C165.9,65.4,170.9,70.4,170.9,76.6z M36.4,65.4c-6.2,0-11.2,5-11.2,11.2v42.9c0,6.2,5,11.2,11.2,11.2c6.2,0,11.2-5,11.2-11.2V76.6
		C47.6,70.4,42.6,65.4,36.4,65.4z M184.9,81c-6.2,0-11.2,5-11.2,11.2V104c0,6.2,5,11.2,11.2,11.2c6.2,0,11.2-5,11.2-11.2V92.2
		C196.1,86,191.1,81,184.9,81z M11.2,81C5,81,0,86,0,92.2V104c0,6.2,5,11.2,11.2,11.2s11.2-5,11.2-11.2V92.2
		C22.4,86,17.4,81,11.2,81z M133.5,50.8c-6.2,0-11.2,5-11.2,11.2v24.8H73.8V62c0-6.2-5-11.2-11.2-11.2c-6.2,0-11.2,5-11.2,11.2v72
		c0,6.2,5,11.2,11.2,11.2c6.2,0,11.2-5,11.2-11.2v-24.8h48.5v24.8c0,6.2,5,11.2,11.2,11.2c6.2,0,11.2-5,11.2-11.2V62
		C144.7,55.9,139.7,50.8,133.5,50.8z"/>
</g>
</svg>
