<?xml version="1.0" encoding="utf-8"?>
<!-- Generator: Adobe Illustrator 24.0.1, SVG Export Plug-In . SVG Version: 6.00 Build 0)  -->
<svg version="1.1" id="Слой_1" xmlns="http://www.w3.org/2000/svg" xmlns:xlink="http://www.w3.org/1999/xlink" x="0px" y="0px"
	 viewBox="0 0 24 24" style="enable-background:new 0 0 24 24;" xml:space="preserve">
<style type="text/css">
	.st0{fill-rule:evenodd;clip-rule:evenodd;fill:#2B2B2B;}
</style>
<path class="st0" d="M17.4,20.4c-0.2-0.4-0.2-0.7-0.3-1.1c0.6-0.7,1.2-1.4,1.7-2.2c0.6-0.2,1.3-0.4,2.3-1
	C20.3,17.9,19,19.4,17.4,20.4 M9.2,21.6c1-0.6,1.9-1.2,2.8-1.9c1,0.3,2.1,0.4,3.2,0.4l0,0c0.1,0.4,0.2,0.8,0.4,1.2
	C13.6,22.1,11.4,22.2,9.2,21.6 M2,12l1.3,1.2C3.1,14.3,3,15.3,3,16.4C2.4,15.1,2,13.6,2,12L2,12 M13.4,2.1l-0.8,1.7
	C10.5,4.4,9.2,5,7.4,5.9L4.5,5.4C6.7,3,9.9,1.6,13.4,2.1 M11.6,13.9c-1.1-0.7-1.9-1.5-3.5-2.7l0.5-3.6c1.4-0.8,2.6-1.2,4.5-1.8
	c1,0.7,2,1.4,2.9,2.2l0,0c-0.1,1.7-0.4,3.1-0.8,4.5C14,13,12.8,13.5,11.6,13.9 M6.8,20.5c-0.6-0.3-1.1-0.7-1.5-1.2
	c-0.3-1.9-0.4-3.9,0-5.9l0,0L7,12.8c1.2,1.1,2.3,2,3.7,2.9l0.1,2.5C9.4,19.3,8.3,19.9,6.8,20.5 M21.9,13.2c-1,0.7-1.8,1.2-3,1.7
	l-1.7-2c0.5-1.4,0.7-3,0.9-4.7l2.5-1.4C21.7,8.7,22.2,10.9,21.9,13.2 M12,0C5.4,0,0,5.4,0,12s5.4,12,12,12s12-5.4,12-12S18.6,0,12,0
	"/>
</svg>
