<?xml version="1.0" encoding="utf-8"?>
<!-- Generator: Adobe Illustrator 24.0.1, SVG Export Plug-In . SVG Version: 6.00 Build 0)  -->
<svg version="1.1" id="Слой_1" xmlns="http://www.w3.org/2000/svg" xmlns:xlink="http://www.w3.org/1999/xlink" x="0px" y="0px"
	 viewBox="0 0 24 24" style="enable-background:new 0 0 24 24;" xml:space="preserve">
<style type="text/css">
	.st0{fill-rule:evenodd;clip-rule:evenodd;fill:#2B2B2B;}
</style>
<path class="st0" d="M11.2,16.4l3.8-1.9l-3.9-3.3l1.2-0.6l6.3,2.1l3-1.5c0.8-0.4,2.1-0.3,2.4,0.3c0,0.1,0.1,0.2,0.1,0.3
	c0,0.6-0.6,1.4-1.3,1.8l-3,1.5l-2.1,6.3L16.4,22L16.2,17l-3.8,1.9l-0.8,1.9l-0.8,0.4l-0.3-2.8l-2.1-1.9l0.8-0.4
	C9.2,15.9,11.2,16.4,11.2,16.4z M9,20.6c-4.8,1.5-8.6-2.4-9-4.6c1.6,1.7,4.6,3.3,8,2.3l0.9,0.8C8.9,19.1,9,20.6,9,20.6z M0.1,13.6
	C0,13.1,0,12.6,0,12C0,6.5,4.5,2,10,2c4.9,0,9,3.6,9.8,8.3l-1.6,0.8c-1.3-0.5-4.4-1.7-4.4-1.7c-0.6-0.2-1.3-0.5-1.7-0.3
	c0.1-0.4-0.2-0.7-0.5-1c-0.1-0.1-0.8-0.6-0.6-0.2l0.7,0.7c0,0-0.2-0.2-0.2,0c0-0.1,0,0.5-0.1,0.3c0-0.1,0.1-0.1,0-0.2
	c0-0.1-0.2-0.1-0.2-0.2c-0.1-0.1-0.4-0.4-0.5-0.5c0,0-0.6,0.1-0.7,0.1L9.7,8.2c-0.1,0-0.2,0.1-0.4,0.2L9.3,8.6
	C9.2,8.7,8.6,8.9,8.6,8.9c0-0.1-0.4-0.1-0.4-0.3c0-0.1,0.2-0.6,0.1-0.7c0-0.2,0.9,0.2,1-0.2c0-0.2,0-0.4-0.3-0.4
	c0.1,0,0.6-0.2,0.7-0.3c0.1-0.1,0.4-0.4,0.6-0.4c0.2,0,0.2-0.3,0.3-0.5c0.1,0-0.1,0.3,0.1,0.4c0-0.1,0.4,0,0.4,0
	c0.1,0,0.6,0,0.5-0.2c-0.1-0.2,0-0.2,0.1-0.2c0,0,0.3-0.5,0.3-0.3c0-0.2-0.4,0.1-0.5,0.1c-0.3,0-0.1-0.4-0.1-0.6
	c0.1-0.1-0.2-0.2-0.2,0c0,0.3-0.3,0.5-0.2,0.9C11.3,6.6,10.6,6,10.5,6c-0.2,0.1-0.4-0.2-0.3-0.4c0.1-0.2,0.4-0.2,0.5-0.4
	c0.1-0.1,0.2-0.3,0.3-0.4c0.4-0.4,0.6-0.1,1,0c0.4,0,0.1,0.1,0.1,0.3c-0.1,0.2,0.2,0.2,0.3,0.1c0.1-0.1,0.2-0.3,0.2-0.4
	c0.1-0.2,0.8-0.2,0.3-0.4c-0.3-0.2-1.7-0.6-2.6-0.6c-0.2,0-0.3,0.2-0.5,0.3C9.7,4.3,8.9,4.8,8.5,4.6C8.1,4.5,7.1,5.2,7,5.2
	c-0.1,0,0-0.5,0.3-0.6c-0.1,0,1-0.6,1-0.7c0-0.2-2.3,0.7-2.2,0.9c0,0.1,0.2,0.1,0,0.2C5.9,5.1,5.7,5.6,5.6,5.6
	C5.2,5.8,5.2,5.3,4.7,6L3.9,6.3C2.8,7.5,2.1,9,1.8,10.6c0,0.1,0.3,0.2,0.3,0.2c0.1,0.1,0.1,0.6,0.1,0.8c0.1,0.4,0.4,0.6,0.6,1
	c0.1,0.2,0.3,0.8,0.3,1c0.1-0.1,0.9,0.7,1,0.9c0.3,0.4,0.6,0.9,0.1,1.3c-0.1,0.1,0.1,0.7,0.1,1C1.8,16.2,0.1,13.6,0.1,13.6z
	 M10.4,14.5c0-0.2-0.1-0.4-0.3-0.3c-0.5,0.1-0.3-0.4-0.7-0.3c-0.2,0-0.4,0.2-0.7,0.2C8.5,14.2,8.2,14,7.9,14
	c-1.2-0.1-1.6-1.5-1.2-2.5c0-0.2-0.1-0.5,0-0.6c0.1-0.3,0.4-0.6,0.6-0.8C7.4,10,7.5,10,7.7,9.9c0.2-0.2,0.2-0.5,0.5-0.7
	C8.5,9,9,9,9.4,8.9c0.2,0,1.1-0.2,1.3-0.1c0,0,0.2,0.5,0,0.5l0,0l0,0c0.1,0,0.2,0.1,0.3,0.1l-0.6,0.3l-0.2,0.1
	c-0.1,0.1-0.3,0.2-0.4,0.3c-0.3,0.4-0.4,0.9-0.4,1.3c0,0.2,0.1,0.3,0.1,0.5s0.2,0.3,0.3,0.4l0.1,0.1l1.9,1.6L11,14.6
	C11,14.6,10.4,14.5,10.4,14.5z M11,8.8c0-0.1,0.3-0.1,0.3-0.1C11.4,8.7,11.1,9.1,11,8.8z M9.2,6.2L9.2,6.2L9.2,6.2
	c0.1,0.2,0.1,0.3,0.1,0.4L9.1,6.7c0,0.1,0.2,0.1,0.2,0.1c0,0-0.3,0.1-0.3,0.1C9.1,7,9.7,6.7,9.6,6.8c0.2-0.1,0-0.1-0.1-0.2
	c0-0.2-0.1-0.5-0.2-0.6l0.1-0.1C9.3,5.7,9.2,6.2,9.2,6.2z M8.7,6.7C8.7,6.7,8.6,6.7,8.7,6.7l0-0.2l0,0l0.1-0.1l0.1,0L9,6.3
	c0,0,0.1,0.1,0.1,0.1L9,6.5C9,6.7,8.8,6.7,8.7,6.7L8.7,6.7L8.7,6.7L8.7,6.7z"/>
</svg>
