<?xml version="1.0" encoding="utf-8"?>
<!-- Generator: Adobe Illustrator 24.0.1, SVG Export Plug-In . SVG Version: 6.00 Build 0)  -->
<svg version="1.1" id="Слой_1" xmlns="http://www.w3.org/2000/svg" xmlns:xlink="http://www.w3.org/1999/xlink" x="0px" y="0px"
	 viewBox="0 0 24 24" style="enable-background:new 0 0 24 24;" xml:space="preserve">
<style type="text/css">
	.st0{fill:#2B2B2B;}
</style>
<path class="st0" d="M11.3,7L24,4.4l0,0L23,0L1.8,4.2C0.8,4.4,0,5.3,0,6.4V21c0,1.7,1.3,3,3,3h18c1.7,0,3-1.3,3-3V7H11.3z M20.1,1.8
	l2.4,1.6l-3,0.6l-2.4-1.6C17.1,2.4,20.1,1.8,20.1,1.8z M14.2,2.9l2.4,1.6l-3,0.6l-2.4-1.6C11.2,3.5,14.2,2.9,14.2,2.9z M8.3,4.1
	l2.4,1.6l-3,0.6L5.3,4.7L8.3,4.1z M5.8,10l2-2h3.1l-2,2C8.8,10,5.8,10,5.8,10z M10,20v-7l6,3.4L10,20z M14.8,10h-3.1l2-2h3.1
	C16.9,8,14.8,10,14.8,10z M20.8,10h-3.1l2-2h3.1C22.9,8,20.8,10,20.8,10z"/>
</svg>
